<svg width="321" height="321" viewBox="0 0 321 321" fill="none" xmlns="http://www.w3.org/2000/svg">
<path fill-rule="evenodd" clip-rule="evenodd" d="M115.404 121.872L120.424 116.852C136.932 133.361 170.618 122.206 178.092 114.733L183.111 119.753C175.861 127.003 154.333 135.145 135.371 131.799L204.081 200.51L199.061 205.529L130.351 136.819C133.586 155.669 125.554 177.309 118.304 184.559L113.285 179.539C120.87 171.955 131.913 138.38 115.404 121.872Z" fill="#2D2D2D"/>
<path fill-rule="evenodd" clip-rule="evenodd" d="M257.543 98.6603L256.459 96.9803L241.583 100.301L242.592 101.863L246.283 100.98L249.699 106.272L247.375 109.271L248.385 110.834L257.543 98.6603ZM255.596 98.7041L255.618 98.7382L250.729 104.918L247.953 100.616L255.596 98.7041Z" fill="#2D2D2D"/>
<path fill-rule="evenodd" clip-rule="evenodd" d="M266.226 137.561L266.956 141.576C267.273 143.327 268.234 144.026 269.946 143.715C271.658 143.404 272.311 142.411 271.992 140.66L271.263 136.646L266.226 137.561ZM272.515 134.589L273.531 140.177C274 142.755 273.219 144.95 270.268 145.486C267.316 146.023 265.814 144.242 265.346 141.665L264.651 137.848L258.768 138.918L258.447 137.146L272.515 134.589Z" fill="#2D2D2D"/>
<path fill-rule="evenodd" clip-rule="evenodd" d="M266.79 178.974L265.957 182.968C265.593 184.711 266.22 185.721 267.924 186.076C269.627 186.432 270.605 185.757 270.97 184.014L271.803 180.02L266.79 178.974ZM273.737 178.584L272.577 184.145C272.042 186.71 270.493 188.451 267.557 187.838C264.619 187.226 263.896 185.01 264.431 182.446L265.222 178.647L259.368 177.426L259.736 175.663L273.737 178.584Z" fill="#2D2D2D"/>
<path fill-rule="evenodd" clip-rule="evenodd" d="M251.521 217.452L249.507 220.41C248.674 221.633 247.776 223.271 249.825 224.666C251.875 226.062 253.069 224.627 253.903 223.404L255.917 220.445L251.521 217.452ZM258.251 219.859L254.988 224.651C253.401 226.981 251.076 227.696 248.977 226.266C247.276 225.107 246.885 223.655 247.444 222.125L247.411 222.103C245.109 224.381 241.118 220.26 240.503 220.737L240.404 220.669L241.495 219.066C242.341 218.891 245.855 222.93 247.892 219.939L250.199 216.552L245.423 213.299L246.436 211.812L258.251 219.859Z" fill="#2D2D2D"/>
<path fill-rule="evenodd" clip-rule="evenodd" d="M214.018 252.959C215.673 255.558 218.495 257.009 221.533 255.075C224.569 253.14 224.446 249.969 222.792 247.37C221.136 244.773 218.304 243.304 215.267 245.238C212.229 247.173 212.364 250.361 214.018 252.959ZM224.31 246.405C226.621 250.031 225.935 254.168 222.392 256.424C218.848 258.681 214.809 257.554 212.499 253.927C210.189 250.299 210.864 246.146 214.407 243.889C217.95 241.632 221.999 242.777 224.31 246.405Z" fill="#2D2D2D"/>
<path fill-rule="evenodd" clip-rule="evenodd" d="M175.574 263.913L179.292 270.859L179.332 270.852L180.625 263.081L175.574 263.913ZM180.956 261.405L181.617 257.668L183.453 257.365L180.568 272.332L178.595 272.656L171.081 259.405L172.917 259.102L174.741 262.429L180.956 261.405Z" fill="#2D2D2D"/>
<path fill-rule="evenodd" clip-rule="evenodd" d="M134.738 269.649C138.05 270.424 140.102 267.884 140.759 265.078C141.419 262.254 140.705 259.068 137.394 258.293C134.472 257.609 132.878 259.332 132.35 261.058L130.598 260.648C131.629 257.643 134.33 255.932 137.759 256.734C141.576 257.628 143.496 261.281 142.511 265.489C141.531 269.676 138.191 272.1 134.374 271.207C130.965 270.41 129.302 267.679 129.59 264.953L131.344 265.363C131.287 266.747 131.836 268.97 134.738 269.649Z" fill="#2D2D2D"/>
<mask id="mask0" mask-type="alpha" maskUnits="userSpaceOnUse" x="86" y="235" width="22" height="22">
<path fill-rule="evenodd" clip-rule="evenodd" d="M107.662 245.348L95.8905 256.325L86.5881 246.35L98.3597 235.372L107.662 245.348Z" fill="white"/>
</mask>
<g mask="url(#mask0)">
<path fill-rule="evenodd" clip-rule="evenodd" d="M95.9308 253.866L99.5541 248.985L93.4196 244.431L89.7963 249.314L88.3514 248.241L96.8728 236.759L98.3184 237.831L94.3729 243.147L100.507 247.699L104.453 242.385L105.898 243.457L97.3764 254.94L95.9308 253.866Z" fill="#2D2D2D"/>
</g>
<path fill-rule="evenodd" clip-rule="evenodd" d="M65.9919 196.254L64.8943 193.058C63.7113 189.615 60.821 189.636 58.1735 190.545C55.5253 191.454 53.2136 193.222 54.3959 196.664L55.4942 199.861L65.9919 196.254ZM54.5661 202.083L52.8828 197.183C51.6035 193.457 53.2379 190.337 57.5884 188.843C61.9381 187.349 65.1268 188.812 66.4068 192.538L68.0909 197.437L54.5661 202.083Z" fill="#2D2D2D"/>
<path fill-rule="evenodd" clip-rule="evenodd" d="M54.4089 140.045L55.9929 140.273L54.951 147.538L59.9002 148.249L61.1123 139.795L62.6964 140.021L61.2281 150.258L47.0726 148.226L48.5071 138.227L50.0911 138.455L48.912 146.672L53.3662 147.311L54.4089 140.045Z" fill="#2D2D2D"/>
<path fill-rule="evenodd" clip-rule="evenodd" d="M79.0464 95.7275C80.7502 96.9212 81.4541 99.2948 79.378 102.259C77.4382 105.026 74.461 106.139 71.6611 104.421L72.6932 102.947C74.4137 103.908 76.3462 103.798 78.0679 101.341C79.4909 99.3097 79.062 97.9348 78.0143 97.2013C76.41 96.0762 75.5067 96.7381 73.064 98.9339C71.4273 100.399 69.3517 102.07 67.0761 100.475C65.2251 99.1787 64.9958 96.8932 66.809 94.3054C68.553 91.8163 71.0474 90.9751 73.6079 92.4775L72.5757 93.9513C70.8542 93.0627 69.4156 93.3719 68.1191 95.2235C66.9597 96.8776 66.9783 98.2098 67.9452 98.886C69.5012 99.9769 70.5971 98.8647 72.2281 97.4436C74.7303 95.2662 76.3778 93.857 79.0464 95.7275Z" fill="#2D2D2D"/>
<path fill-rule="evenodd" clip-rule="evenodd" d="M103.901 60.6243L111.136 72.9574L109.584 73.869L102.348 61.5351L103.901 60.6243Z" fill="#2D2D2D"/>
<path fill-rule="evenodd" clip-rule="evenodd" d="M151.115 47.1663C147.728 47.4591 146.564 50.7106 146.795 53.3812C147.027 56.0716 148.333 59.1101 151.92 58.7995C154.471 58.5786 156.404 56.5653 156.173 53.8955L151.53 54.2965L151.393 52.7019L157.829 52.1462L158.47 59.5581L157.274 59.6621L156.502 57.7015L156.463 57.7043C155.516 59.2915 154.249 60.2046 152.058 60.3934C147.914 60.751 145.374 57.8407 145.002 53.5358C144.631 49.2528 147.032 45.9136 150.977 45.5724C154.584 45.2604 156.639 46.9694 157.371 49.6362L155.578 49.7908C154.983 47.7953 153.268 46.9804 151.115 47.1663Z" fill="#2D2D2D"/>
<path fill-rule="evenodd" clip-rule="evenodd" d="M200.269 52.2582L202.294 53.1143L204.288 66.7389L204.324 66.7544L208.906 55.9072L210.564 56.6076L205.002 69.7752L202.975 68.9197L200.968 55.3314L200.931 55.3167L196.364 66.1262L194.707 65.4265L200.269 52.2582Z" fill="#2D2D2D"/>
</svg>
