<svg xmlns="http://www.w3.org/2000/svg" xmlns:xlink="http://www.w3.org/1999/xlink" width="105.472" height="105.541" viewBox="0 0 105.472 105.541">
  <defs>
    <clipPath id="clip-path">
      <rect id="Retângulo_178" data-name="Retângulo 178" width="105.472" height="105.541" fill="none"/>
    </clipPath>
  </defs>
  <g id="seal-base" transform="translate(52.736 52.771)">
    <g id="Grupo_159" data-name="Grupo 159" transform="translate(-52.736 -52.77)" clip-path="url(#clip-path)">
      <path id="Caminho_5386" data-name="Caminho 5386" d="M5.505,249.12a3.008,3.008,0,0,0-.091-1.2,2.607,2.607,0,0,0-.492-.93,2.479,2.479,0,0,0-.784-.62,2.807,2.807,0,0,0-1.987-.2,2.425,2.425,0,0,0-.893.456,2.7,2.7,0,0,0-.674.8,2.953,2.953,0,0,0-.346,1.148L0,250.943l5.268.547Zm-1.622,0-.036.292L1.8,249.193l.036-.292a.966.966,0,0,1,.128-.4.93.93,0,0,1,.255-.292,1,1,0,0,1,.328-.146,1.167,1.167,0,0,1,.784.073,1,1,0,0,1,.31.237.929.929,0,0,1,.2.328.966.966,0,0,1,.036.419" transform="translate(0 -201.215)"/>
      <path id="Caminho_5387" data-name="Caminho 5387" d="M12.3,199.8a1.732,1.732,0,0,0,.747-.255,2.187,2.187,0,0,0,.6-.6,3.445,3.445,0,0,0,.565-1.914,2.187,2.187,0,0,0-.182-.839,1.713,1.713,0,0,0-.474-.62,2.1,2.1,0,0,0-.747-.383L9.549,194.2,9,196.041l3.245.966a.438.438,0,0,1-.255.839l-3.245-.966L8.2,198.721l3.263.984a2.1,2.1,0,0,0,.839.091" transform="translate(-6.705 -158.8)"/>
      <path id="Caminho_5388" data-name="Caminho 5388" d="M30.4,150.79a2.953,2.953,0,0,0,1.878.984,2.589,2.589,0,0,0,1.057-.091,2.844,2.844,0,0,0,.984-.547,3.209,3.209,0,0,0,.784-1,3.355,3.355,0,0,0,.383-1.148,2.7,2.7,0,0,0-.055-1.021,2.516,2.516,0,0,0-.419-.875,2.862,2.862,0,0,0-.711-.674l-.93,1.786a.875.875,0,0,1,.292.456,1.075,1.075,0,0,1-.711,1.167,1.094,1.094,0,0,1-.784-.109,1.276,1.276,0,0,1-.328-.237,1,1,0,0,1-.219-.31.857.857,0,0,1-.073-.383,1.021,1.021,0,0,1,.128-.419.857.857,0,0,1,.474-.456.948.948,0,0,1,.565-.018l.93-1.786a2.79,2.79,0,0,0-.966-.219,2.479,2.479,0,0,0-.966.146,2.752,2.752,0,0,0-.875.547,3.354,3.354,0,0,0-.729.966,3.154,3.154,0,0,0-.365,1.2,2.807,2.807,0,0,0,.109,1.094,2.607,2.607,0,0,0,.529.93" transform="translate(-24.308 -119.291)"/>
      <path id="Caminho_5389" data-name="Caminho 5389" d="M60.623,101.679l-1.6-1.294,2.37.365,1.385-1.732-3.19-.273-.93-3.044-1.385,1.732.857,2.242L56.5,98.361l-1.2,1.513,4.12,3.318Z" transform="translate(-45.219 -78.255)"/>
      <path id="Caminho_5390" data-name="Caminho 5390" d="M121.54,51.434a3.008,3.008,0,0,0,.857-.839,2.607,2.607,0,0,0,.4-.966,2.479,2.479,0,0,0-.018-1,2.807,2.807,0,0,0-1.112-1.659,2.424,2.424,0,0,0-.93-.4,2.716,2.716,0,0,0-1.057,0,2.953,2.953,0,0,0-1.094.474L116.6,48.372l2.953,4.393Zm-2.187-2.953a.966.966,0,0,1,.383-.164.929.929,0,0,1,.383.018,1,1,0,0,1,.346.164,1.167,1.167,0,0,1,.437.656,1,1,0,0,1,.018.383.93.93,0,0,1-.128.365.966.966,0,0,1-.292.292l-.237.164-1.148-1.714Z" transform="translate(-95.345 -38.036)"/>
      <path id="Caminho_5391" data-name="Caminho 5391" d="M169.414,25.231l-.565-1.258-1.513.656L167.1,24.1l1.513-.674-.51-1.185-1.513.656-.255-.565,1.513-.674-.565-1.258L164,21.84l2.133,4.831Z" transform="translate(-134.105 -16.681)"/>
      <path id="Caminho_5392" data-name="Caminho 5392" d="M209.633,9.752a1.586,1.586,0,0,0,.529.365,2.935,2.935,0,0,0,.674.2l.766.109.438.073.255.073.146.073a.279.279,0,0,1,.018.328.383.383,0,0,1-.237.146.438.438,0,0,1-.383-.073.656.656,0,0,1-.219-.383l-1.878.456a1.762,1.762,0,0,0,.948,1.258,3.363,3.363,0,0,0,3.391-.8,1.55,1.55,0,0,0,.273-1.4,1.367,1.367,0,0,0-.346-.656,1.713,1.713,0,0,0-.547-.365,2.679,2.679,0,0,0-.693-.182l-.747-.091a2.26,2.26,0,0,1-.6-.128.328.328,0,0,1-.219-.219.237.237,0,0,1,.055-.237.4.4,0,0,1,.2-.128.328.328,0,0,1,.328.055.784.784,0,0,1,.182.383l1.878-.456a2.022,2.022,0,0,0-.237-.547,1.385,1.385,0,0,0-.474-.474,1.9,1.9,0,0,0-.82-.182,3.172,3.172,0,0,0-1.148.109,4.467,4.467,0,0,0-.8.273,2.516,2.516,0,0,0-.656.437,1.477,1.477,0,0,0-.4.6,1.331,1.331,0,0,0-.018.766,1.4,1.4,0,0,0,.328.638" transform="translate(-171.097 -5.669)"/>
      <rect id="Retângulo_174" data-name="Retângulo 174" width="1.932" height="5.286" transform="translate(47.219 0.266) rotate(-4.9)"/>
      <path id="Caminho_5393" data-name="Caminho 5393" d="M295.637,4.621a2.533,2.533,0,0,0,.857.656,3.281,3.281,0,0,0,1.2.31,3.628,3.628,0,0,0,1.076-.055,2.479,2.479,0,0,0,.857-.346,2.079,2.079,0,0,0,.6-.6,2.515,2.515,0,0,0,.346-.82l.474.036.091-1.167-3.226-.255-.091,1.167.8.055a.583.583,0,0,1-.237.346.766.766,0,0,1-.51.109.839.839,0,0,1-.711-.4A1.512,1.512,0,0,1,297,2.761a2.589,2.589,0,0,1,.073-.437,1.167,1.167,0,0,1,.164-.365.747.747,0,0,1,.292-.255.839.839,0,0,1,.438-.073.8.8,0,0,1,.292.073l.182.146a.566.566,0,0,1,.109.164.6.6,0,0,1,.036.164l2.169.164a2.006,2.006,0,0,0-.182-.82,2.278,2.278,0,0,0-.51-.711,2.752,2.752,0,0,0-.82-.529,3.573,3.573,0,0,0-1.112-.255,3.044,3.044,0,0,0-1.24.128,2.679,2.679,0,0,0-.948.547,2.643,2.643,0,0,0-.62.857,2.99,2.99,0,0,0-.273,1.039,3.136,3.136,0,0,0,.109,1.112,2.552,2.552,0,0,0,.474.93" transform="translate(-241.261 -0.009)"/>
      <path id="Caminho_5394" data-name="Caminho 5394" d="M350.288,10.344l.729,3.008,1.859.529,1.458-5.086-1.841-.529-.784,2.7-.693-3.135L349.158,7.3,347.7,12.386l1.841.529Z" transform="translate(-284.319 -5.969)"/>
      <path id="Caminho_5395" data-name="Caminho 5395" d="M426.474,49.2a2.723,2.723,0,0,0,1.713.565,1.549,1.549,0,0,0,1.2-.747,1.367,1.367,0,0,0,.255-.693,1.714,1.714,0,0,0-.109-.656,2.68,2.68,0,0,0-.328-.638l-.456-.62a2.26,2.26,0,0,1-.328-.529.328.328,0,0,1,.018-.31.255.255,0,0,1,.2-.128.4.4,0,0,1,.237.073.328.328,0,0,1,.182.273.784.784,0,0,1-.164.4l1.6,1.057a2.023,2.023,0,0,0,.237-.547,1.4,1.4,0,0,0,.018-.656,1.9,1.9,0,0,0-.346-.729,3.171,3.171,0,0,0-.857-.766,4.452,4.452,0,0,0-.747-.4,2.5,2.5,0,0,0-.766-.182,1.477,1.477,0,0,0-.711.109,1.331,1.331,0,0,0-.583.51,1.4,1.4,0,0,0-.255.656,1.586,1.586,0,0,0,.091.638,2.936,2.936,0,0,0,.31.62l.437.638.237.365.128.237a.328.328,0,0,1,.037.164.256.256,0,0,1-.037.128.273.273,0,0,1-.182.128.383.383,0,0,1-.255-.073.438.438,0,0,1-.219-.328.657.657,0,0,1,.128-.419l-1.6-1.057a1.761,1.761,0,0,0-.292,1.549,2.781,2.781,0,0,0,1.167,1.385" transform="translate(-347.689 -35.95)"/>
      <path id="Caminho_5396" data-name="Caminho 5396" d="M464.122,76.051l2.479-2.68.729.656,1.094-1.185L465.6,70.2l-1.112,1.185.711.674-2.5,2.68Z" transform="translate(-378.355 -57.403)"/>
      <path id="Caminho_5397" data-name="Caminho 5397" d="M492.591,107.263a2.205,2.205,0,0,0,.128.839,3.445,3.445,0,0,0,1.2,1.586,2.186,2.186,0,0,0,.784.346,1.713,1.713,0,0,0,.784-.018,2.079,2.079,0,0,0,.747-.383l2.716-2.078-1.167-1.531-2.7,2.06a.437.437,0,0,1-.693-.4.419.419,0,0,1,.164-.292l2.7-2.06-1.167-1.531-2.716,2.06a2.1,2.1,0,0,0-.565.62,1.729,1.729,0,0,0-.219.747" transform="translate(-402.796 -84.879)"/>
      <path id="Caminho_5398" data-name="Caminho 5398" d="M517.357,152.484a3.009,3.009,0,0,0,.729.966,2.606,2.606,0,0,0,.911.51,2.479,2.479,0,0,0,1,.109,2.807,2.807,0,0,0,1.786-.893,2.421,2.421,0,0,0,.51-.857,2.694,2.694,0,0,0,.128-1.039,2.953,2.953,0,0,0-.328-1.148L521.021,148l-4.721,2.37Zm3.081-2.06.128.255a.965.965,0,0,1,.109.4.911.911,0,0,1-.055.383,1,1,0,0,1-.2.328,1.167,1.167,0,0,1-.711.346,1,1,0,0,1-.383-.018.929.929,0,0,1-.346-.182.966.966,0,0,1-.255-.328l-.128-.255Z" transform="translate(-422.185 -121.021)"/>
      <rect id="Retângulo_175" data-name="Retângulo 175" width="5.286" height="1.927" transform="translate(97.77 37.747) rotate(-17.3)"/>
      <path id="Caminho_5399" data-name="Caminho 5399" d="M548.692,235.72a2.953,2.953,0,0,0-1.021.328,2.588,2.588,0,0,0-.8.674,2.735,2.735,0,0,0-.492,1,3.206,3.206,0,0,0-.055,1.276,3.171,3.171,0,0,0,.4,1.2,2.755,2.755,0,0,0,.729.82,2.625,2.625,0,0,0,.966.437,2.935,2.935,0,0,0,2.1-.292,2.644,2.644,0,0,0,.8-.693,2.771,2.771,0,0,0,.492-.984,3.5,3.5,0,0,0-.346-2.479,2.753,2.753,0,0,0-.729-.839,2.588,2.588,0,0,0-.966-.437,2.953,2.953,0,0,0-1.076-.055m1.276,2.352a1.021,1.021,0,0,1-.073,1.185.964.964,0,0,1-.292.237,1.166,1.166,0,0,1-.784.109.949.949,0,0,1-.346-.146,1.021,1.021,0,0,1-.2-1.458.965.965,0,0,1,.292-.237,1.167,1.167,0,0,1,.784-.109.966.966,0,0,1,.346.146,1,1,0,0,1,.273.273" transform="translate(-446.701 -192.7)"/>
      <path id="Caminho_5400" data-name="Caminho 5400" d="M548.63,303.2l-.237,2.37a3.008,3.008,0,0,0,.091,1.2,2.605,2.605,0,0,0,.492.93,2.5,2.5,0,0,0,.784.62,2.789,2.789,0,0,0,1.987.2,2.425,2.425,0,0,0,.893-.456,2.7,2.7,0,0,0,.674-.8,2.953,2.953,0,0,0,.346-1.148l.237-2.37Zm3.427,2.57a.966.966,0,0,1-.128.4.929.929,0,0,1-.255.292,1,1,0,0,1-.346.164,1.167,1.167,0,0,1-.784-.073,1.036,1.036,0,0,1-.31-.237.928.928,0,0,1-.2-.328.964.964,0,0,1-.036-.419l.036-.292,2.06.219Z" transform="translate(-448.408 -247.93)"/>
      <path id="Caminho_5401" data-name="Caminho 5401" d="M539.314,354.058a1.733,1.733,0,0,0-.747.255,2.2,2.2,0,0,0-.6.6,3.444,3.444,0,0,0-.565,1.914,2.189,2.189,0,0,0,.182.839,1.732,1.732,0,0,0,.474.62,2.078,2.078,0,0,0,.747.383l3.263.984.547-1.841-3.245-.966a.438.438,0,0,1,.255-.839l3.245.966.547-1.841-3.263-.984a2.1,2.1,0,0,0-.839-.091" transform="translate(-439.438 -289.51)"/>
      <path id="Caminho_5402" data-name="Caminho 5402" d="M522.272,401.6a2.935,2.935,0,0,0-1.878-.984,2.552,2.552,0,0,0-1.057.091,2.825,2.825,0,0,0-.984.547,3.19,3.19,0,0,0-.784,1,3.355,3.355,0,0,0-.383,1.148,2.7,2.7,0,0,0,.055,1.021,2.5,2.5,0,0,0,.419.875,2.841,2.841,0,0,0,.711.674l.93-1.786a.876.876,0,0,1-.292-.456,1.057,1.057,0,0,1,.711-1.167,1.075,1.075,0,0,1,.784.109,1.294,1.294,0,0,1,.328.237,1.019,1.019,0,0,1,.219.31.856.856,0,0,1,.073.383,1,1,0,0,1-.128.419.857.857,0,0,1-.474.456.929.929,0,0,1-.565.018l-.93,1.786a2.789,2.789,0,0,0,.966.219,2.46,2.46,0,0,0,.966-.146,2.752,2.752,0,0,0,.875-.547,3.374,3.374,0,0,0,.729-.966,3.155,3.155,0,0,0,.365-1.2,2.786,2.786,0,0,0-.109-1.094,2.606,2.606,0,0,0-.529-.93" transform="translate(-422.889 -327.57)"/>
      <path id="Caminho_5403" data-name="Caminho 5403" d="M484.451,443.713l1.622,1.294-2.37-.365-1.4,1.732,3.19.273.93,3.044,1.385-1.732-.857-2.242,1.622,1.294,1.2-1.495-4.12-3.318Z" transform="translate(-394.383 -361.592)"/>
      <path id="Caminho_5404" data-name="Caminho 5404" d="M429.065,499.531a3.025,3.025,0,0,0-.857.838,2.606,2.606,0,0,0-.4.966,2.46,2.46,0,0,0,.018,1A2.789,2.789,0,0,0,428.938,504a2.427,2.427,0,0,0,.93.4,2.718,2.718,0,0,0,1.057,0,2.954,2.954,0,0,0,1.094-.474l1.987-1.331-2.953-4.393Zm2.206,2.953a.986.986,0,0,1-.383.164.93.93,0,0,1-.383-.018.986.986,0,0,1-.346-.164,1.167,1.167,0,0,1-.437-.656.986.986,0,0,1-.018-.383.931.931,0,0,1,.128-.365.968.968,0,0,1,.292-.292l.237-.164,1.148,1.713Z" transform="translate(-349.788 -407.384)"/>
      <path id="Caminho_5405" data-name="Caminho 5405" d="M384.9,525.54l.565,1.276,1.513-.674.237.547-1.513.674.51,1.185,1.531-.656.237.565-1.513.674.565,1.258,3.281-1.44-2.133-4.849Z" transform="translate(-314.737 -428.563)"/>
      <path id="Caminho_5406" data-name="Caminho 5406" d="M345.636,544a1.569,1.569,0,0,0-.529-.365,2.919,2.919,0,0,0-.674-.2l-.766-.109-.437-.073-.255-.073-.146-.073a.256.256,0,0,1-.055-.109.273.273,0,0,1,.036-.219.382.382,0,0,1,.237-.146.438.438,0,0,1,.383.073.657.657,0,0,1,.219.383l1.878-.456a1.7,1.7,0,0,0-.948-1.258,3.363,3.363,0,0,0-3.391.8,1.55,1.55,0,0,0-.273,1.4,1.368,1.368,0,0,0,.346.656,1.716,1.716,0,0,0,.547.365,2.7,2.7,0,0,0,.693.182l.747.091a2.224,2.224,0,0,1,.6.128.328.328,0,0,1,.219.219.237.237,0,0,1-.055.237.4.4,0,0,1-.2.128.328.328,0,0,1-.328-.055.783.783,0,0,1-.182-.383l-1.878.456a2.025,2.025,0,0,0,.237.547,1.4,1.4,0,0,0,.474.474,1.9,1.9,0,0,0,.766.255,3.193,3.193,0,0,0,1.148-.109,4.475,4.475,0,0,0,.8-.273,2.5,2.5,0,0,0,.656-.438,1.493,1.493,0,0,0,.4-.6,1.33,1.33,0,0,0,.018-.766,1.386,1.386,0,0,0-.31-.638" transform="translate(-278.719 -442.536)"/>
      <rect id="Retângulo_176" data-name="Retângulo 176" width="1.932" height="5.288" transform="translate(55.883 100.15) rotate(-4.9)"/>
      <path id="Caminho_5407" data-name="Caminho 5407" d="M255.605,549.288a2.552,2.552,0,0,0-.857-.656,3.3,3.3,0,0,0-1.2-.31,3.622,3.622,0,0,0-1.075.055,2.494,2.494,0,0,0-.857.346,2.079,2.079,0,0,0-.6.6,2.515,2.515,0,0,0-.346.82l-.474-.037-.091,1.167,3.19.255.091-1.167-.8-.055a.584.584,0,0,1,.237-.346.784.784,0,0,1,.51-.109.82.82,0,0,1,.711.4,1.513,1.513,0,0,1,.164.893,2.556,2.556,0,0,1-.073.438,1.148,1.148,0,0,1-.164.383.745.745,0,0,1-.292.255.818.818,0,0,1-.437.073.763.763,0,0,1-.292-.073.638.638,0,0,1-.182-.146.583.583,0,0,1-.109-.164.639.639,0,0,1-.036-.164l-2.169-.164a2.023,2.023,0,0,0,.182.838,2.294,2.294,0,0,0,.51.711,2.753,2.753,0,0,0,.82.529,3.544,3.544,0,0,0,1.112.255,3.043,3.043,0,0,0,1.24-.128,2.681,2.681,0,0,0,.948-.547,2.643,2.643,0,0,0,.62-.857,2.972,2.972,0,0,0,.273-1.039,3.154,3.154,0,0,0-.109-1.112,2.552,2.552,0,0,0-.474-.93" transform="translate(-204.51 -448.355)"/>
      <path id="Caminho_5408" data-name="Caminho 5408" d="M198.547,539.118l-.729-2.989-1.859-.529-1.458,5.086,1.841.529.784-2.7.693,3.117,1.859.547,1.476-5.086-1.859-.529Z" transform="translate(-159.045 -437.967)"/>
      <path id="Caminho_5409" data-name="Caminho 5409" d="M127.048,503.732a2.723,2.723,0,0,0-1.714-.565,1.549,1.549,0,0,0-1.2.747,1.367,1.367,0,0,0-.255.693,1.713,1.713,0,0,0,.109.656,2.661,2.661,0,0,0,.328.62l.456.62a2.28,2.28,0,0,1,.328.529.328.328,0,0,1-.018.31.237.237,0,0,1-.2.128.4.4,0,0,1-.237-.073.328.328,0,0,1-.182-.273.8.8,0,0,1,.164-.4l-1.6-1.057a2,2,0,0,0-.237.547,1.4,1.4,0,0,0-.018.656,1.9,1.9,0,0,0,.346.729,3.188,3.188,0,0,0,.857.766,4.414,4.414,0,0,0,.747.4,2.5,2.5,0,0,0,.766.182,1.5,1.5,0,0,0,.711-.109,1.331,1.331,0,0,0,.583-.511,1.4,1.4,0,0,0,.255-.656,1.567,1.567,0,0,0-.091-.638,2.949,2.949,0,0,0-.31-.62l-.437-.638-.237-.365-.128-.237a.328.328,0,0,1-.036-.164.292.292,0,0,1,.237-.255.364.364,0,0,1,.255.073.437.437,0,0,1,.219.328.656.656,0,0,1-.128.419l1.6,1.057a1.762,1.762,0,0,0,.292-1.549,2.7,2.7,0,0,0-1.167-1.367" transform="translate(-100.361 -411.439)"/>
      <path id="Caminho_5410" data-name="Caminho 5410" d="M88.82,476.7l-2.5,2.68-.711-.656L84.5,479.908l2.844,2.643,1.094-1.185-.711-.674,2.5-2.68Z" transform="translate(-69.097 -389.803)"/>
      <path id="Caminho_5411" data-name="Caminho 5411" d="M57.462,443.608a2.187,2.187,0,0,0-.128-.838,3.445,3.445,0,0,0-1.2-1.586,2.19,2.19,0,0,0-.784-.346,1.732,1.732,0,0,0-.784.018,2.114,2.114,0,0,0-.747.383L51.1,443.3l1.167,1.531,2.7-2.06a.437.437,0,0,1,.529.693l-2.7,2.06,1.167,1.531,2.716-2.078a2.078,2.078,0,0,0,.565-.62,1.714,1.714,0,0,0,.219-.766" transform="translate(-41.785 -360.448)"/>
      <path id="Caminho_5412" data-name="Caminho 5412" d="M33.817,399.239a3.009,3.009,0,0,0-.729-.966,2.589,2.589,0,0,0-.911-.51,2.462,2.462,0,0,0-.984-.109,2.807,2.807,0,0,0-1.786.893,2.424,2.424,0,0,0-.51.857,2.7,2.7,0,0,0-.128,1.039,2.971,2.971,0,0,0,.328,1.148l1.076,2.133,4.721-2.37Zm-3.081,2.06-.128-.255a.966.966,0,0,1-.109-.4.948.948,0,0,1,.055-.383,1.02,1.02,0,0,1,.2-.328,1.167,1.167,0,0,1,.711-.346,1.021,1.021,0,0,1,.383.018.931.931,0,0,1,.346.182.967.967,0,0,1,.255.328l.128.255Z" transform="translate(-23.518 -325.158)"/>
      <rect id="Retângulo_177" data-name="Retângulo 177" width="5.286" height="1.925" transform="translate(2.067 67.588) rotate(-17.3)"/>
      <path id="Caminho_5413" data-name="Caminho 5413" d="M4.7,316.874a2.952,2.952,0,0,0,1.021-.328,2.589,2.589,0,0,0,.8-.674,2.752,2.752,0,0,0,.492-1,3.5,3.5,0,0,0-.346-2.479,2.771,2.771,0,0,0-.729-.82,2.642,2.642,0,0,0-.966-.437,2.953,2.953,0,0,0-2.1.273,2.625,2.625,0,0,0-.8.693,2.752,2.752,0,0,0-.492.984,3.172,3.172,0,0,0-.055,1.258,3.209,3.209,0,0,0,.4,1.2,2.752,2.752,0,0,0,.729.838,2.587,2.587,0,0,0,.966.437,2.952,2.952,0,0,0,1.075.055m-1.276-2.352a1.021,1.021,0,0,1,.073-1.185.967.967,0,0,1,.292-.237,1.129,1.129,0,0,1,.383-.128,1.15,1.15,0,0,1,.4.018.967.967,0,0,1,.346.146.986.986,0,0,1,.273.273,1.021,1.021,0,0,1-.073,1.185.966.966,0,0,1-.292.237,1.166,1.166,0,0,1-.784.109A.966.966,0,0,1,3.7,314.8a.986.986,0,0,1-.273-.273" transform="translate(-1.217 -254.349)"/>
      <path id="Caminho_5414" data-name="Caminho 5414" d="M136.054,92.268a43.977,43.977,0,1,0-43.986,43.968,44.017,44.017,0,0,0,43.986-43.968M92.068,133.41a41.151,41.151,0,1,1,41.161-41.142A41.178,41.178,0,0,1,92.068,133.41" transform="translate(-39.332 -39.496)"/>
    </g>
  </g>
</svg>
